<?xml version="1.0" encoding="UTF-8"?>
<svg xmlns="http://www.w3.org/2000/svg" width="288" height="96" viewBox="0 0 288 96" shape-rendering="crispEdges">
  <title>Marty Bell idle pixel sprite sheet</title>
  <desc>Three-frame idle sprite sheet for Marty Bell.</desc>
  <g>
<rect x="56" y="4" width="4" height="4" fill="#5f3d31" />
<rect x="60" y="4" width="4" height="4" fill="#5f3d31" />
<rect x="64" y="4" width="4" height="4" fill="#5f3d31" />
<rect x="28" y="8" width="4" height="4" fill="#5f3d31" />
<rect x="32" y="8" width="4" height="4" fill="#5f3d31" />
<rect x="36" y="8" width="4" height="4" fill="#5f3d31" />
<rect x="40" y="8" width="4" height="4" fill="#5f3d31" />
<rect x="44" y="8" width="4" height="4" fill="#5f3d31" />
<rect x="48" y="8" width="4" height="4" fill="#5f3d31" />
<rect x="52" y="8" width="4" height="4" fill="#5f3d31" />
<rect x="56" y="8" width="4" height="4" fill="#5f3d31" />
<rect x="60" y="8" width="4" height="4" fill="#5f3d31" />
<rect x="64" y="8" width="4" height="4" fill="#5f3d31" />
<rect x="28" y="12" width="4" height="4" fill="#5f3d31" />
<rect x="32" y="12" width="4" height="4" fill="#5f3d31" />
<rect x="36" y="12" width="4" height="4" fill="#5f3d31" />
<rect x="40" y="12" width="4" height="4" fill="#5f3d31" />
<rect x="44" y="12" width="4" height="4" fill="#5f3d31" />
<rect x="48" y="12" width="4" height="4" fill="#5f3d31" />
<rect x="52" y="12" width="4" height="4" fill="#5f3d31" />
<rect x="56" y="12" width="4" height="4" fill="#5f3d31" />
<rect x="60" y="12" width="4" height="4" fill="#5f3d31" />
<rect x="64" y="12" width="4" height="4" fill="#5f3d31" />
<rect x="28" y="16" width="4" height="4" fill="#5f3d31" />
<rect x="32" y="16" width="4" height="4" fill="#5f3d31" />
<rect x="36" y="16" width="4" height="4" fill="#5f3d31" />
<rect x="40" y="16" width="4" height="4" fill="#5f3d31" />
<rect x="44" y="16" width="4" height="4" fill="#5f3d31" />
<rect x="48" y="16" width="4" height="4" fill="#5f3d31" />
<rect x="52" y="16" width="4" height="4" fill="#5f3d31" />
<rect x="56" y="16" width="4" height="4" fill="#5f3d31" />
<rect x="60" y="16" width="4" height="4" fill="#5f3d31" />
<rect x="64" y="16" width="4" height="4" fill="#5f3d31" />
<rect x="28" y="20" width="4" height="4" fill="#5f3d31" />
<rect x="32" y="20" width="4" height="4" fill="#5f3d31" />
<rect x="36" y="20" width="4" height="4" fill="#f3c8a5" />
<rect x="40" y="20" width="4" height="4" fill="#f3c8a5" />
<rect x="44" y="20" width="4" height="4" fill="#f3c8a5" />
<rect x="48" y="20" width="4" height="4" fill="#f3c8a5" />
<rect x="52" y="20" width="4" height="4" fill="#f3c8a5" />
<rect x="56" y="20" width="4" height="4" fill="#f3c8a5" />
<rect x="60" y="20" width="4" height="4" fill="#f3c8a5" />
<rect x="64" y="20" width="4" height="4" fill="#261d22" />
<rect x="28" y="24" width="4" height="4" fill="#5f3d31" />
<rect x="32" y="24" width="4" height="4" fill="#5f3d31" />
<rect x="36" y="24" width="4" height="4" fill="#f3c8a5" />
<rect x="40" y="24" width="4" height="4" fill="#f3c8a5" />
<rect x="44" y="24" width="4" height="4" fill="#f3c8a5" />
<rect x="48" y="24" width="4" height="4" fill="#f3c8a5" />
<rect x="52" y="24" width="4" height="4" fill="#f3c8a5" />
<rect x="56" y="24" width="4" height="4" fill="#f3c8a5" />
<rect x="60" y="24" width="4" height="4" fill="#f3c8a5" />
<rect x="64" y="24" width="4" height="4" fill="#261d22" />
<rect x="24" y="28" width="4" height="4" fill="#f3c8a5" />
<rect x="28" y="28" width="4" height="4" fill="#261d22" />
<rect x="32" y="28" width="4" height="4" fill="#f3c8a5" />
<rect x="36" y="28" width="4" height="4" fill="#261d22" />
<rect x="40" y="28" width="4" height="4" fill="#f3c8a5" />
<rect x="44" y="28" width="4" height="4" fill="#f3c8a5" />
<rect x="48" y="28" width="4" height="4" fill="#f3c8a5" />
<rect x="52" y="28" width="4" height="4" fill="#f3c8a5" />
<rect x="56" y="28" width="4" height="4" fill="#261d22" />
<rect x="60" y="28" width="4" height="4" fill="#f3c8a5" />
<rect x="64" y="28" width="4" height="4" fill="#261d22" />
<rect x="68" y="28" width="4" height="4" fill="#f3c8a5" />
<rect x="28" y="32" width="4" height="4" fill="#261d22" />
<rect x="32" y="32" width="4" height="4" fill="#f3c8a5" />
<rect x="36" y="32" width="4" height="4" fill="#f3c8a5" />
<rect x="40" y="32" width="4" height="4" fill="#f3c8a5" />
<rect x="44" y="32" width="4" height="4" fill="#f3c8a5" />
<rect x="48" y="32" width="4" height="4" fill="#f3c8a5" />
<rect x="52" y="32" width="4" height="4" fill="#f3c8a5" />
<rect x="56" y="32" width="4" height="4" fill="#f3c8a5" />
<rect x="60" y="32" width="4" height="4" fill="#f3c8a5" />
<rect x="64" y="32" width="4" height="4" fill="#261d22" />
<rect x="28" y="36" width="4" height="4" fill="#261d22" />
<rect x="32" y="36" width="4" height="4" fill="#f3c8a5" />
<rect x="36" y="36" width="4" height="4" fill="#f3c8a5" />
<rect x="40" y="36" width="4" height="4" fill="#f3c8a5" />
<rect x="44" y="36" width="4" height="4" fill="#f3c8a5" />
<rect x="48" y="36" width="4" height="4" fill="#f3c8a5" />
<rect x="52" y="36" width="4" height="4" fill="#f3c8a5" />
<rect x="56" y="36" width="4" height="4" fill="#f3c8a5" />
<rect x="60" y="36" width="4" height="4" fill="#f3c8a5" />
<rect x="64" y="36" width="4" height="4" fill="#261d22" />
<rect x="28" y="40" width="4" height="4" fill="#261d22" />
<rect x="32" y="40" width="4" height="4" fill="#f3c8a5" />
<rect x="36" y="40" width="4" height="4" fill="#f3c8a5" />
<rect x="40" y="40" width="4" height="4" fill="#9f5d52" />
<rect x="44" y="40" width="4" height="4" fill="#9f5d52" />
<rect x="48" y="40" width="4" height="4" fill="#9f5d52" />
<rect x="52" y="40" width="4" height="4" fill="#f3c8a5" />
<rect x="56" y="40" width="4" height="4" fill="#f3c8a5" />
<rect x="60" y="40" width="4" height="4" fill="#f3c8a5" />
<rect x="64" y="40" width="4" height="4" fill="#261d22" />
<rect x="24" y="44" width="4" height="4" fill="#261d22" />
<rect x="28" y="44" width="4" height="4" fill="#261d22" />
<rect x="32" y="44" width="4" height="4" fill="#261d22" />
<rect x="36" y="44" width="4" height="4" fill="#261d22" />
<rect x="40" y="44" width="4" height="4" fill="#261d22" />
<rect x="44" y="44" width="4" height="4" fill="#261d22" />
<rect x="48" y="44" width="4" height="4" fill="#261d22" />
<rect x="52" y="44" width="4" height="4" fill="#261d22" />
<rect x="56" y="44" width="4" height="4" fill="#261d22" />
<rect x="60" y="44" width="4" height="4" fill="#261d22" />
<rect x="64" y="44" width="4" height="4" fill="#261d22" />
<rect x="24" y="48" width="4" height="4" fill="#261d22" />
<rect x="28" y="48" width="4" height="4" fill="#243b63" />
<rect x="32" y="48" width="4" height="4" fill="#261d22" />
<rect x="36" y="48" width="4" height="4" fill="#243b63" />
<rect x="40" y="48" width="4" height="4" fill="#f8fafc" />
<rect x="44" y="48" width="4" height="4" fill="#8b1e3f" />
<rect x="48" y="48" width="4" height="4" fill="#8b1e3f" />
<rect x="52" y="48" width="4" height="4" fill="#f8fafc" />
<rect x="56" y="48" width="4" height="4" fill="#243b63" />
<rect x="60" y="48" width="4" height="4" fill="#261d22" />
<rect x="16" y="52" width="4" height="4" fill="#cbd5e1" />
<rect x="20" y="52" width="4" height="4" fill="#cbd5e1" />
<rect x="24" y="52" width="4" height="4" fill="#261d22" />
<rect x="28" y="52" width="4" height="4" fill="#243b63" />
<rect x="32" y="52" width="4" height="4" fill="#261d22" />
<rect x="36" y="52" width="4" height="4" fill="#243b63" />
<rect x="40" y="52" width="4" height="4" fill="#f8fafc" />
<rect x="44" y="52" width="4" height="4" fill="#8b1e3f" />
<rect x="48" y="52" width="4" height="4" fill="#8b1e3f" />
<rect x="52" y="52" width="4" height="4" fill="#f8fafc" />
<rect x="56" y="52" width="4" height="4" fill="#243b63" />
<rect x="60" y="52" width="4" height="4" fill="#261d22" />
<rect x="64" y="52" width="4" height="4" fill="#261d22" />
<rect x="68" y="52" width="4" height="4" fill="#261d22" />
<rect x="16" y="56" width="4" height="4" fill="#cbd5e1" />
<rect x="20" y="56" width="4" height="4" fill="#cbd5e1" />
<rect x="24" y="56" width="4" height="4" fill="#7c3aed" />
<rect x="28" y="56" width="4" height="4" fill="#243b63" />
<rect x="32" y="56" width="4" height="4" fill="#261d22" />
<rect x="36" y="56" width="4" height="4" fill="#243b63" />
<rect x="40" y="56" width="4" height="4" fill="#f8fafc" />
<rect x="44" y="56" width="4" height="4" fill="#8b1e3f" />
<rect x="48" y="56" width="4" height="4" fill="#8b1e3f" />
<rect x="52" y="56" width="4" height="4" fill="#f8fafc" />
<rect x="56" y="56" width="4" height="4" fill="#243b63" />
<rect x="60" y="56" width="4" height="4" fill="#261d22" />
<rect x="64" y="56" width="4" height="4" fill="#243b63" />
<rect x="68" y="56" width="4" height="4" fill="#261d22" />
<rect x="16" y="60" width="4" height="4" fill="#cbd5e1" />
<rect x="20" y="60" width="4" height="4" fill="#cbd5e1" />
<rect x="24" y="60" width="4" height="4" fill="#7c3aed" />
<rect x="28" y="60" width="4" height="4" fill="#261d22" />
<rect x="32" y="60" width="4" height="4" fill="#261d22" />
<rect x="36" y="60" width="4" height="4" fill="#243b63" />
<rect x="40" y="60" width="4" height="4" fill="#f8fafc" />
<rect x="44" y="60" width="4" height="4" fill="#8b1e3f" />
<rect x="48" y="60" width="4" height="4" fill="#8b1e3f" />
<rect x="52" y="60" width="4" height="4" fill="#f8fafc" />
<rect x="56" y="60" width="4" height="4" fill="#243b63" />
<rect x="60" y="60" width="4" height="4" fill="#261d22" />
<rect x="64" y="60" width="4" height="4" fill="#243b63" />
<rect x="68" y="60" width="4" height="4" fill="#261d22" />
<rect x="32" y="64" width="4" height="4" fill="#261d22" />
<rect x="36" y="64" width="4" height="4" fill="#261d22" />
<rect x="40" y="64" width="4" height="4" fill="#261d22" />
<rect x="44" y="64" width="4" height="4" fill="#261d22" />
<rect x="48" y="64" width="4" height="4" fill="#261d22" />
<rect x="52" y="64" width="4" height="4" fill="#261d22" />
<rect x="56" y="64" width="4" height="4" fill="#261d22" />
<rect x="60" y="64" width="4" height="4" fill="#261d22" />
<rect x="64" y="64" width="4" height="4" fill="#243b63" />
<rect x="68" y="64" width="4" height="4" fill="#261d22" />
<rect x="36" y="68" width="4" height="4" fill="#334155" />
<rect x="40" y="68" width="4" height="4" fill="#334155" />
<rect x="52" y="68" width="4" height="4" fill="#334155" />
<rect x="56" y="68" width="4" height="4" fill="#334155" />
<rect x="64" y="68" width="4" height="4" fill="#261d22" />
<rect x="68" y="68" width="4" height="4" fill="#261d22" />
<rect x="36" y="72" width="4" height="4" fill="#334155" />
<rect x="40" y="72" width="4" height="4" fill="#334155" />
<rect x="52" y="72" width="4" height="4" fill="#334155" />
<rect x="56" y="72" width="4" height="4" fill="#334155" />
<rect x="36" y="76" width="4" height="4" fill="#334155" />
<rect x="40" y="76" width="4" height="4" fill="#334155" />
<rect x="52" y="76" width="4" height="4" fill="#334155" />
<rect x="56" y="76" width="4" height="4" fill="#334155" />
<rect x="36" y="80" width="4" height="4" fill="#334155" />
<rect x="40" y="80" width="4" height="4" fill="#334155" />
<rect x="52" y="80" width="4" height="4" fill="#334155" />
<rect x="56" y="80" width="4" height="4" fill="#334155" />
<rect x="36" y="84" width="4" height="4" fill="#334155" />
<rect x="40" y="84" width="4" height="4" fill="#334155" />
<rect x="52" y="84" width="4" height="4" fill="#334155" />
<rect x="56" y="84" width="4" height="4" fill="#334155" />
<rect x="32" y="88" width="4" height="4" fill="#1f2937" />
<rect x="36" y="88" width="4" height="4" fill="#1f2937" />
<rect x="40" y="88" width="4" height="4" fill="#1f2937" />
<rect x="44" y="88" width="4" height="4" fill="#1f2937" />
<rect x="48" y="88" width="4" height="4" fill="#1f2937" />
<rect x="52" y="88" width="4" height="4" fill="#1f2937" />
<rect x="56" y="88" width="4" height="4" fill="#1f2937" />
<rect x="60" y="88" width="4" height="4" fill="#1f2937" />
<rect x="152" y="8" width="4" height="4" fill="#5f3d31" />
<rect x="156" y="8" width="4" height="4" fill="#5f3d31" />
<rect x="160" y="8" width="4" height="4" fill="#5f3d31" />
<rect x="124" y="12" width="4" height="4" fill="#5f3d31" />
<rect x="128" y="12" width="4" height="4" fill="#5f3d31" />
<rect x="132" y="12" width="4" height="4" fill="#5f3d31" />
<rect x="136" y="12" width="4" height="4" fill="#5f3d31" />
<rect x="140" y="12" width="4" height="4" fill="#5f3d31" />
<rect x="144" y="12" width="4" height="4" fill="#5f3d31" />
<rect x="148" y="12" width="4" height="4" fill="#5f3d31" />
<rect x="152" y="12" width="4" height="4" fill="#5f3d31" />
<rect x="156" y="12" width="4" height="4" fill="#5f3d31" />
<rect x="160" y="12" width="4" height="4" fill="#5f3d31" />
<rect x="124" y="16" width="4" height="4" fill="#5f3d31" />
<rect x="128" y="16" width="4" height="4" fill="#5f3d31" />
<rect x="132" y="16" width="4" height="4" fill="#5f3d31" />
<rect x="136" y="16" width="4" height="4" fill="#5f3d31" />
<rect x="140" y="16" width="4" height="4" fill="#5f3d31" />
<rect x="144" y="16" width="4" height="4" fill="#5f3d31" />
<rect x="148" y="16" width="4" height="4" fill="#5f3d31" />
<rect x="152" y="16" width="4" height="4" fill="#5f3d31" />
<rect x="156" y="16" width="4" height="4" fill="#5f3d31" />
<rect x="160" y="16" width="4" height="4" fill="#5f3d31" />
<rect x="124" y="20" width="4" height="4" fill="#5f3d31" />
<rect x="128" y="20" width="4" height="4" fill="#5f3d31" />
<rect x="132" y="20" width="4" height="4" fill="#5f3d31" />
<rect x="136" y="20" width="4" height="4" fill="#5f3d31" />
<rect x="140" y="20" width="4" height="4" fill="#5f3d31" />
<rect x="144" y="20" width="4" height="4" fill="#5f3d31" />
<rect x="148" y="20" width="4" height="4" fill="#5f3d31" />
<rect x="152" y="20" width="4" height="4" fill="#5f3d31" />
<rect x="156" y="20" width="4" height="4" fill="#5f3d31" />
<rect x="160" y="20" width="4" height="4" fill="#5f3d31" />
<rect x="124" y="24" width="4" height="4" fill="#5f3d31" />
<rect x="128" y="24" width="4" height="4" fill="#5f3d31" />
<rect x="132" y="24" width="4" height="4" fill="#f3c8a5" />
<rect x="136" y="24" width="4" height="4" fill="#f3c8a5" />
<rect x="140" y="24" width="4" height="4" fill="#f3c8a5" />
<rect x="144" y="24" width="4" height="4" fill="#f3c8a5" />
<rect x="148" y="24" width="4" height="4" fill="#f3c8a5" />
<rect x="152" y="24" width="4" height="4" fill="#f3c8a5" />
<rect x="156" y="24" width="4" height="4" fill="#f3c8a5" />
<rect x="160" y="24" width="4" height="4" fill="#261d22" />
<rect x="124" y="28" width="4" height="4" fill="#5f3d31" />
<rect x="128" y="28" width="4" height="4" fill="#5f3d31" />
<rect x="132" y="28" width="4" height="4" fill="#f3c8a5" />
<rect x="136" y="28" width="4" height="4" fill="#f3c8a5" />
<rect x="140" y="28" width="4" height="4" fill="#f3c8a5" />
<rect x="144" y="28" width="4" height="4" fill="#f3c8a5" />
<rect x="148" y="28" width="4" height="4" fill="#f3c8a5" />
<rect x="152" y="28" width="4" height="4" fill="#f3c8a5" />
<rect x="156" y="28" width="4" height="4" fill="#f3c8a5" />
<rect x="160" y="28" width="4" height="4" fill="#261d22" />
<rect x="120" y="32" width="4" height="4" fill="#f3c8a5" />
<rect x="124" y="32" width="4" height="4" fill="#261d22" />
<rect x="128" y="32" width="4" height="4" fill="#f3c8a5" />
<rect x="132" y="32" width="4" height="4" fill="#261d22" />
<rect x="136" y="32" width="4" height="4" fill="#261d22" />
<rect x="140" y="32" width="4" height="4" fill="#f3c8a5" />
<rect x="144" y="32" width="4" height="4" fill="#f3c8a5" />
<rect x="148" y="32" width="4" height="4" fill="#261d22" />
<rect x="152" y="32" width="4" height="4" fill="#261d22" />
<rect x="156" y="32" width="4" height="4" fill="#f3c8a5" />
<rect x="160" y="32" width="4" height="4" fill="#261d22" />
<rect x="164" y="32" width="4" height="4" fill="#f3c8a5" />
<rect x="124" y="36" width="4" height="4" fill="#261d22" />
<rect x="128" y="36" width="4" height="4" fill="#f3c8a5" />
<rect x="132" y="36" width="4" height="4" fill="#f3c8a5" />
<rect x="136" y="36" width="4" height="4" fill="#f3c8a5" />
<rect x="140" y="36" width="4" height="4" fill="#f3c8a5" />
<rect x="144" y="36" width="4" height="4" fill="#f3c8a5" />
<rect x="148" y="36" width="4" height="4" fill="#f3c8a5" />
<rect x="152" y="36" width="4" height="4" fill="#f3c8a5" />
<rect x="156" y="36" width="4" height="4" fill="#f3c8a5" />
<rect x="160" y="36" width="4" height="4" fill="#261d22" />
<rect x="124" y="40" width="4" height="4" fill="#261d22" />
<rect x="128" y="40" width="4" height="4" fill="#f3c8a5" />
<rect x="132" y="40" width="4" height="4" fill="#f3c8a5" />
<rect x="136" y="40" width="4" height="4" fill="#f3c8a5" />
<rect x="140" y="40" width="4" height="4" fill="#f3c8a5" />
<rect x="144" y="40" width="4" height="4" fill="#f3c8a5" />
<rect x="148" y="40" width="4" height="4" fill="#f3c8a5" />
<rect x="152" y="40" width="4" height="4" fill="#f3c8a5" />
<rect x="156" y="40" width="4" height="4" fill="#f3c8a5" />
<rect x="160" y="40" width="4" height="4" fill="#261d22" />
<rect x="124" y="44" width="4" height="4" fill="#261d22" />
<rect x="128" y="44" width="4" height="4" fill="#f3c8a5" />
<rect x="132" y="44" width="4" height="4" fill="#f3c8a5" />
<rect x="136" y="44" width="4" height="4" fill="#9f5d52" />
<rect x="140" y="44" width="4" height="4" fill="#9f5d52" />
<rect x="144" y="44" width="4" height="4" fill="#9f5d52" />
<rect x="148" y="44" width="4" height="4" fill="#f3c8a5" />
<rect x="152" y="44" width="4" height="4" fill="#f3c8a5" />
<rect x="156" y="44" width="4" height="4" fill="#f3c8a5" />
<rect x="160" y="44" width="4" height="4" fill="#261d22" />
<rect x="124" y="48" width="4" height="4" fill="#261d22" />
<rect x="128" y="48" width="4" height="4" fill="#261d22" />
<rect x="132" y="48" width="4" height="4" fill="#261d22" />
<rect x="136" y="48" width="4" height="4" fill="#261d22" />
<rect x="140" y="48" width="4" height="4" fill="#261d22" />
<rect x="144" y="48" width="4" height="4" fill="#261d22" />
<rect x="148" y="48" width="4" height="4" fill="#261d22" />
<rect x="152" y="48" width="4" height="4" fill="#261d22" />
<rect x="156" y="48" width="4" height="4" fill="#261d22" />
<rect x="160" y="48" width="4" height="4" fill="#261d22" />
<rect x="120" y="52" width="4" height="4" fill="#261d22" />
<rect x="124" y="52" width="4" height="4" fill="#261d22" />
<rect x="128" y="52" width="4" height="4" fill="#261d22" />
<rect x="132" y="52" width="4" height="4" fill="#243b63" />
<rect x="136" y="52" width="4" height="4" fill="#f8fafc" />
<rect x="140" y="52" width="4" height="4" fill="#8b1e3f" />
<rect x="144" y="52" width="4" height="4" fill="#8b1e3f" />
<rect x="148" y="52" width="4" height="4" fill="#f8fafc" />
<rect x="152" y="52" width="4" height="4" fill="#243b63" />
<rect x="156" y="52" width="4" height="4" fill="#261d22" />
<rect x="160" y="52" width="4" height="4" fill="#261d22" />
<rect x="164" y="52" width="4" height="4" fill="#261d22" />
<rect x="112" y="56" width="4" height="4" fill="#cbd5e1" />
<rect x="116" y="56" width="4" height="4" fill="#cbd5e1" />
<rect x="120" y="56" width="4" height="4" fill="#261d22" />
<rect x="124" y="56" width="4" height="4" fill="#243b63" />
<rect x="128" y="56" width="4" height="4" fill="#261d22" />
<rect x="132" y="56" width="4" height="4" fill="#243b63" />
<rect x="136" y="56" width="4" height="4" fill="#f8fafc" />
<rect x="140" y="56" width="4" height="4" fill="#8b1e3f" />
<rect x="144" y="56" width="4" height="4" fill="#8b1e3f" />
<rect x="148" y="56" width="4" height="4" fill="#f8fafc" />
<rect x="152" y="56" width="4" height="4" fill="#243b63" />
<rect x="156" y="56" width="4" height="4" fill="#261d22" />
<rect x="160" y="56" width="4" height="4" fill="#243b63" />
<rect x="164" y="56" width="4" height="4" fill="#261d22" />
<rect x="112" y="60" width="4" height="4" fill="#cbd5e1" />
<rect x="116" y="60" width="4" height="4" fill="#cbd5e1" />
<rect x="120" y="60" width="4" height="4" fill="#7c3aed" />
<rect x="124" y="60" width="4" height="4" fill="#243b63" />
<rect x="128" y="60" width="4" height="4" fill="#261d22" />
<rect x="132" y="60" width="4" height="4" fill="#243b63" />
<rect x="136" y="60" width="4" height="4" fill="#f8fafc" />
<rect x="140" y="60" width="4" height="4" fill="#8b1e3f" />
<rect x="144" y="60" width="4" height="4" fill="#8b1e3f" />
<rect x="148" y="60" width="4" height="4" fill="#f8fafc" />
<rect x="152" y="60" width="4" height="4" fill="#243b63" />
<rect x="156" y="60" width="4" height="4" fill="#261d22" />
<rect x="160" y="60" width="4" height="4" fill="#243b63" />
<rect x="164" y="60" width="4" height="4" fill="#261d22" />
<rect x="112" y="64" width="4" height="4" fill="#cbd5e1" />
<rect x="116" y="64" width="4" height="4" fill="#cbd5e1" />
<rect x="120" y="64" width="4" height="4" fill="#7c3aed" />
<rect x="124" y="64" width="4" height="4" fill="#243b63" />
<rect x="128" y="64" width="4" height="4" fill="#261d22" />
<rect x="132" y="64" width="4" height="4" fill="#243b63" />
<rect x="136" y="64" width="4" height="4" fill="#f8fafc" />
<rect x="140" y="64" width="4" height="4" fill="#8b1e3f" />
<rect x="144" y="64" width="4" height="4" fill="#8b1e3f" />
<rect x="148" y="64" width="4" height="4" fill="#f8fafc" />
<rect x="152" y="64" width="4" height="4" fill="#243b63" />
<rect x="156" y="64" width="4" height="4" fill="#261d22" />
<rect x="160" y="64" width="4" height="4" fill="#243b63" />
<rect x="164" y="64" width="4" height="4" fill="#261d22" />
<rect x="120" y="68" width="4" height="4" fill="#261d22" />
<rect x="124" y="68" width="4" height="4" fill="#261d22" />
<rect x="128" y="68" width="4" height="4" fill="#261d22" />
<rect x="132" y="68" width="4" height="4" fill="#261d22" />
<rect x="136" y="68" width="4" height="4" fill="#261d22" />
<rect x="140" y="68" width="4" height="4" fill="#261d22" />
<rect x="144" y="68" width="4" height="4" fill="#261d22" />
<rect x="148" y="68" width="4" height="4" fill="#261d22" />
<rect x="152" y="68" width="4" height="4" fill="#261d22" />
<rect x="156" y="68" width="4" height="4" fill="#261d22" />
<rect x="160" y="68" width="4" height="4" fill="#261d22" />
<rect x="164" y="68" width="4" height="4" fill="#261d22" />
<rect x="132" y="72" width="4" height="4" fill="#334155" />
<rect x="136" y="72" width="4" height="4" fill="#334155" />
<rect x="148" y="72" width="4" height="4" fill="#334155" />
<rect x="152" y="72" width="4" height="4" fill="#334155" />
<rect x="132" y="76" width="4" height="4" fill="#334155" />
<rect x="136" y="76" width="4" height="4" fill="#334155" />
<rect x="148" y="76" width="4" height="4" fill="#334155" />
<rect x="152" y="76" width="4" height="4" fill="#334155" />
<rect x="132" y="80" width="4" height="4" fill="#334155" />
<rect x="136" y="80" width="4" height="4" fill="#334155" />
<rect x="148" y="80" width="4" height="4" fill="#334155" />
<rect x="152" y="80" width="4" height="4" fill="#334155" />
<rect x="132" y="84" width="4" height="4" fill="#334155" />
<rect x="136" y="84" width="4" height="4" fill="#334155" />
<rect x="148" y="84" width="4" height="4" fill="#334155" />
<rect x="152" y="84" width="4" height="4" fill="#334155" />
<rect x="132" y="88" width="4" height="4" fill="#334155" />
<rect x="136" y="88" width="4" height="4" fill="#334155" />
<rect x="148" y="88" width="4" height="4" fill="#334155" />
<rect x="152" y="88" width="4" height="4" fill="#334155" />
<rect x="128" y="92" width="4" height="4" fill="#1f2937" />
<rect x="132" y="92" width="4" height="4" fill="#1f2937" />
<rect x="136" y="92" width="4" height="4" fill="#1f2937" />
<rect x="140" y="92" width="4" height="4" fill="#1f2937" />
<rect x="144" y="92" width="4" height="4" fill="#1f2937" />
<rect x="148" y="92" width="4" height="4" fill="#1f2937" />
<rect x="152" y="92" width="4" height="4" fill="#1f2937" />
<rect x="156" y="92" width="4" height="4" fill="#1f2937" />
<rect x="248" y="4" width="4" height="4" fill="#5f3d31" />
<rect x="252" y="4" width="4" height="4" fill="#5f3d31" />
<rect x="256" y="4" width="4" height="4" fill="#5f3d31" />
<rect x="220" y="8" width="4" height="4" fill="#5f3d31" />
<rect x="224" y="8" width="4" height="4" fill="#5f3d31" />
<rect x="228" y="8" width="4" height="4" fill="#5f3d31" />
<rect x="232" y="8" width="4" height="4" fill="#5f3d31" />
<rect x="236" y="8" width="4" height="4" fill="#5f3d31" />
<rect x="240" y="8" width="4" height="4" fill="#5f3d31" />
<rect x="244" y="8" width="4" height="4" fill="#5f3d31" />
<rect x="248" y="8" width="4" height="4" fill="#5f3d31" />
<rect x="252" y="8" width="4" height="4" fill="#5f3d31" />
<rect x="256" y="8" width="4" height="4" fill="#5f3d31" />
<rect x="220" y="12" width="4" height="4" fill="#5f3d31" />
<rect x="224" y="12" width="4" height="4" fill="#5f3d31" />
<rect x="228" y="12" width="4" height="4" fill="#5f3d31" />
<rect x="232" y="12" width="4" height="4" fill="#5f3d31" />
<rect x="236" y="12" width="4" height="4" fill="#5f3d31" />
<rect x="240" y="12" width="4" height="4" fill="#5f3d31" />
<rect x="244" y="12" width="4" height="4" fill="#5f3d31" />
<rect x="248" y="12" width="4" height="4" fill="#5f3d31" />
<rect x="252" y="12" width="4" height="4" fill="#5f3d31" />
<rect x="256" y="12" width="4" height="4" fill="#5f3d31" />
<rect x="220" y="16" width="4" height="4" fill="#5f3d31" />
<rect x="224" y="16" width="4" height="4" fill="#5f3d31" />
<rect x="228" y="16" width="4" height="4" fill="#5f3d31" />
<rect x="232" y="16" width="4" height="4" fill="#5f3d31" />
<rect x="236" y="16" width="4" height="4" fill="#5f3d31" />
<rect x="240" y="16" width="4" height="4" fill="#5f3d31" />
<rect x="244" y="16" width="4" height="4" fill="#5f3d31" />
<rect x="248" y="16" width="4" height="4" fill="#5f3d31" />
<rect x="252" y="16" width="4" height="4" fill="#5f3d31" />
<rect x="256" y="16" width="4" height="4" fill="#5f3d31" />
<rect x="220" y="20" width="4" height="4" fill="#5f3d31" />
<rect x="224" y="20" width="4" height="4" fill="#5f3d31" />
<rect x="228" y="20" width="4" height="4" fill="#f3c8a5" />
<rect x="232" y="20" width="4" height="4" fill="#f3c8a5" />
<rect x="236" y="20" width="4" height="4" fill="#f3c8a5" />
<rect x="240" y="20" width="4" height="4" fill="#f3c8a5" />
<rect x="244" y="20" width="4" height="4" fill="#f3c8a5" />
<rect x="248" y="20" width="4" height="4" fill="#f3c8a5" />
<rect x="252" y="20" width="4" height="4" fill="#f3c8a5" />
<rect x="256" y="20" width="4" height="4" fill="#261d22" />
<rect x="220" y="24" width="4" height="4" fill="#5f3d31" />
<rect x="224" y="24" width="4" height="4" fill="#5f3d31" />
<rect x="228" y="24" width="4" height="4" fill="#f3c8a5" />
<rect x="232" y="24" width="4" height="4" fill="#f3c8a5" />
<rect x="236" y="24" width="4" height="4" fill="#f3c8a5" />
<rect x="240" y="24" width="4" height="4" fill="#f3c8a5" />
<rect x="244" y="24" width="4" height="4" fill="#f3c8a5" />
<rect x="248" y="24" width="4" height="4" fill="#f3c8a5" />
<rect x="252" y="24" width="4" height="4" fill="#f3c8a5" />
<rect x="256" y="24" width="4" height="4" fill="#261d22" />
<rect x="216" y="28" width="4" height="4" fill="#f3c8a5" />
<rect x="220" y="28" width="4" height="4" fill="#261d22" />
<rect x="224" y="28" width="4" height="4" fill="#f3c8a5" />
<rect x="228" y="28" width="4" height="4" fill="#261d22" />
<rect x="232" y="28" width="4" height="4" fill="#f3c8a5" />
<rect x="236" y="28" width="4" height="4" fill="#f3c8a5" />
<rect x="240" y="28" width="4" height="4" fill="#f3c8a5" />
<rect x="244" y="28" width="4" height="4" fill="#f3c8a5" />
<rect x="248" y="28" width="4" height="4" fill="#261d22" />
<rect x="252" y="28" width="4" height="4" fill="#f3c8a5" />
<rect x="256" y="28" width="4" height="4" fill="#261d22" />
<rect x="260" y="28" width="4" height="4" fill="#f3c8a5" />
<rect x="220" y="32" width="4" height="4" fill="#261d22" />
<rect x="224" y="32" width="4" height="4" fill="#f3c8a5" />
<rect x="228" y="32" width="4" height="4" fill="#f3c8a5" />
<rect x="232" y="32" width="4" height="4" fill="#f3c8a5" />
<rect x="236" y="32" width="4" height="4" fill="#f3c8a5" />
<rect x="240" y="32" width="4" height="4" fill="#f3c8a5" />
<rect x="244" y="32" width="4" height="4" fill="#f3c8a5" />
<rect x="248" y="32" width="4" height="4" fill="#f3c8a5" />
<rect x="252" y="32" width="4" height="4" fill="#f3c8a5" />
<rect x="256" y="32" width="4" height="4" fill="#261d22" />
<rect x="220" y="36" width="4" height="4" fill="#261d22" />
<rect x="224" y="36" width="4" height="4" fill="#f3c8a5" />
<rect x="228" y="36" width="4" height="4" fill="#f3c8a5" />
<rect x="232" y="36" width="4" height="4" fill="#f3c8a5" />
<rect x="236" y="36" width="4" height="4" fill="#f3c8a5" />
<rect x="240" y="36" width="4" height="4" fill="#f3c8a5" />
<rect x="244" y="36" width="4" height="4" fill="#f3c8a5" />
<rect x="248" y="36" width="4" height="4" fill="#f3c8a5" />
<rect x="252" y="36" width="4" height="4" fill="#f3c8a5" />
<rect x="256" y="36" width="4" height="4" fill="#261d22" />
<rect x="220" y="40" width="4" height="4" fill="#261d22" />
<rect x="224" y="40" width="4" height="4" fill="#f3c8a5" />
<rect x="228" y="40" width="4" height="4" fill="#f3c8a5" />
<rect x="232" y="40" width="4" height="4" fill="#9f5d52" />
<rect x="236" y="40" width="4" height="4" fill="#9f5d52" />
<rect x="240" y="40" width="4" height="4" fill="#9f5d52" />
<rect x="244" y="40" width="4" height="4" fill="#f3c8a5" />
<rect x="248" y="40" width="4" height="4" fill="#f3c8a5" />
<rect x="252" y="40" width="4" height="4" fill="#f3c8a5" />
<rect x="256" y="40" width="4" height="4" fill="#261d22" />
<rect x="220" y="44" width="4" height="4" fill="#261d22" />
<rect x="224" y="44" width="4" height="4" fill="#261d22" />
<rect x="228" y="44" width="4" height="4" fill="#261d22" />
<rect x="232" y="44" width="4" height="4" fill="#261d22" />
<rect x="236" y="44" width="4" height="4" fill="#261d22" />
<rect x="240" y="44" width="4" height="4" fill="#261d22" />
<rect x="244" y="44" width="4" height="4" fill="#261d22" />
<rect x="248" y="44" width="4" height="4" fill="#261d22" />
<rect x="252" y="44" width="4" height="4" fill="#261d22" />
<rect x="256" y="44" width="4" height="4" fill="#261d22" />
<rect x="260" y="44" width="4" height="4" fill="#261d22" />
<rect x="224" y="48" width="4" height="4" fill="#261d22" />
<rect x="228" y="48" width="4" height="4" fill="#243b63" />
<rect x="232" y="48" width="4" height="4" fill="#f8fafc" />
<rect x="236" y="48" width="4" height="4" fill="#8b1e3f" />
<rect x="240" y="48" width="4" height="4" fill="#8b1e3f" />
<rect x="244" y="48" width="4" height="4" fill="#f8fafc" />
<rect x="248" y="48" width="4" height="4" fill="#243b63" />
<rect x="252" y="48" width="4" height="4" fill="#261d22" />
<rect x="256" y="48" width="4" height="4" fill="#243b63" />
<rect x="260" y="48" width="4" height="4" fill="#261d22" />
<rect x="216" y="52" width="4" height="4" fill="#261d22" />
<rect x="220" y="52" width="4" height="4" fill="#261d22" />
<rect x="224" y="52" width="4" height="4" fill="#261d22" />
<rect x="228" y="52" width="4" height="4" fill="#243b63" />
<rect x="232" y="52" width="4" height="4" fill="#f8fafc" />
<rect x="236" y="52" width="4" height="4" fill="#8b1e3f" />
<rect x="240" y="52" width="4" height="4" fill="#8b1e3f" />
<rect x="244" y="52" width="4" height="4" fill="#f8fafc" />
<rect x="248" y="52" width="4" height="4" fill="#243b63" />
<rect x="252" y="52" width="4" height="4" fill="#261d22" />
<rect x="256" y="52" width="4" height="4" fill="#243b63" />
<rect x="260" y="52" width="4" height="4" fill="#261d22" />
<rect x="208" y="56" width="4" height="4" fill="#cbd5e1" />
<rect x="212" y="56" width="4" height="4" fill="#cbd5e1" />
<rect x="216" y="56" width="4" height="4" fill="#261d22" />
<rect x="220" y="56" width="4" height="4" fill="#243b63" />
<rect x="224" y="56" width="4" height="4" fill="#261d22" />
<rect x="228" y="56" width="4" height="4" fill="#243b63" />
<rect x="232" y="56" width="4" height="4" fill="#f8fafc" />
<rect x="236" y="56" width="4" height="4" fill="#8b1e3f" />
<rect x="240" y="56" width="4" height="4" fill="#8b1e3f" />
<rect x="244" y="56" width="4" height="4" fill="#f8fafc" />
<rect x="248" y="56" width="4" height="4" fill="#243b63" />
<rect x="252" y="56" width="4" height="4" fill="#261d22" />
<rect x="256" y="56" width="4" height="4" fill="#243b63" />
<rect x="260" y="56" width="4" height="4" fill="#261d22" />
<rect x="208" y="60" width="4" height="4" fill="#cbd5e1" />
<rect x="212" y="60" width="4" height="4" fill="#cbd5e1" />
<rect x="216" y="60" width="4" height="4" fill="#7c3aed" />
<rect x="220" y="60" width="4" height="4" fill="#243b63" />
<rect x="224" y="60" width="4" height="4" fill="#261d22" />
<rect x="228" y="60" width="4" height="4" fill="#243b63" />
<rect x="232" y="60" width="4" height="4" fill="#f8fafc" />
<rect x="236" y="60" width="4" height="4" fill="#8b1e3f" />
<rect x="240" y="60" width="4" height="4" fill="#8b1e3f" />
<rect x="244" y="60" width="4" height="4" fill="#f8fafc" />
<rect x="248" y="60" width="4" height="4" fill="#243b63" />
<rect x="252" y="60" width="4" height="4" fill="#261d22" />
<rect x="256" y="60" width="4" height="4" fill="#261d22" />
<rect x="260" y="60" width="4" height="4" fill="#261d22" />
<rect x="208" y="64" width="4" height="4" fill="#cbd5e1" />
<rect x="212" y="64" width="4" height="4" fill="#cbd5e1" />
<rect x="216" y="64" width="4" height="4" fill="#7c3aed" />
<rect x="220" y="64" width="4" height="4" fill="#243b63" />
<rect x="224" y="64" width="4" height="4" fill="#261d22" />
<rect x="228" y="64" width="4" height="4" fill="#261d22" />
<rect x="232" y="64" width="4" height="4" fill="#261d22" />
<rect x="236" y="64" width="4" height="4" fill="#261d22" />
<rect x="240" y="64" width="4" height="4" fill="#261d22" />
<rect x="244" y="64" width="4" height="4" fill="#261d22" />
<rect x="248" y="64" width="4" height="4" fill="#261d22" />
<rect x="252" y="64" width="4" height="4" fill="#261d22" />
<rect x="216" y="68" width="4" height="4" fill="#261d22" />
<rect x="220" y="68" width="4" height="4" fill="#261d22" />
<rect x="228" y="68" width="4" height="4" fill="#334155" />
<rect x="232" y="68" width="4" height="4" fill="#334155" />
<rect x="244" y="68" width="4" height="4" fill="#334155" />
<rect x="248" y="68" width="4" height="4" fill="#334155" />
<rect x="228" y="72" width="4" height="4" fill="#334155" />
<rect x="232" y="72" width="4" height="4" fill="#334155" />
<rect x="244" y="72" width="4" height="4" fill="#334155" />
<rect x="248" y="72" width="4" height="4" fill="#334155" />
<rect x="228" y="76" width="4" height="4" fill="#334155" />
<rect x="232" y="76" width="4" height="4" fill="#334155" />
<rect x="244" y="76" width="4" height="4" fill="#334155" />
<rect x="248" y="76" width="4" height="4" fill="#334155" />
<rect x="228" y="80" width="4" height="4" fill="#334155" />
<rect x="232" y="80" width="4" height="4" fill="#334155" />
<rect x="244" y="80" width="4" height="4" fill="#334155" />
<rect x="248" y="80" width="4" height="4" fill="#334155" />
<rect x="228" y="84" width="4" height="4" fill="#334155" />
<rect x="232" y="84" width="4" height="4" fill="#334155" />
<rect x="244" y="84" width="4" height="4" fill="#334155" />
<rect x="248" y="84" width="4" height="4" fill="#334155" />
<rect x="224" y="88" width="4" height="4" fill="#1f2937" />
<rect x="228" y="88" width="4" height="4" fill="#1f2937" />
<rect x="232" y="88" width="4" height="4" fill="#1f2937" />
<rect x="236" y="88" width="4" height="4" fill="#1f2937" />
<rect x="240" y="88" width="4" height="4" fill="#1f2937" />
<rect x="244" y="88" width="4" height="4" fill="#1f2937" />
<rect x="248" y="88" width="4" height="4" fill="#1f2937" />
<rect x="252" y="88" width="4" height="4" fill="#1f2937" />
  </g>
</svg>
